<?xml version="1.0" encoding="UTF-8"?>
<svg xmlns="http://www.w3.org/2000/svg" xmlns:xlink="http://www.w3.org/1999/xlink"
     width="800" height="300" viewBox="-200.0 -75.0 400 150">
<defs>
</defs>
<rect x="-200.0" y="-75.0" width="400" height="150" fill="#ffff" />
<path d="M151.875,0 L152.5,0" fill="#eeee00" stroke="black" stroke-width="1" stroke-linecap="round" />
<path d="M154.375,0 L155.0,0" fill="#eeee00" stroke="black" stroke-width="1" stroke-linecap="round" />
<path d="M156.875,0 L157.5,0" fill="#eeee00" stroke="black" stroke-width="1" stroke-linecap="round" />
<path d="M159.375,0 L160.0,0" fill="#eeee00" stroke="black" stroke-width="1" stroke-linecap="round" />
<path d="M-160.0,0 L150.0,0" fill="#eeee00" stroke="black" stroke-width="1" stroke-linecap="round" />
<path d="M-152.0,-4 L-152.0,-32" fill="#eeee00" stroke="black" stroke-width="1" stroke-linecap="round" />
<text x="-150.0" y="-25" font-size="6" font-family="Georgia" text-anchor="auto" dominant-baseline="auto"><tspan x="-150.0" dy="0em">text start</tspan><tspan x="-150.0" dy="1em">2023-06-06 13:44:33</tspan></text>
<path d="M-143.4730095507903,4 L-143.4730095507903,32" fill="#eeee00" stroke="black" stroke-width="1" stroke-linecap="round" />
<text x="-141.4730095507903" y="25" font-size="6" font-family="Georgia" text-anchor="auto" dominant-baseline="auto"><tspan x="-141.4730095507903" dy="0em">text near start</tspan><tspan x="-141.4730095507903" dy="1em">2023-06-06 18:44:33</tspan></text>
<path d="M-68.67851282554732,-4 L-68.67851282554732,-32" fill="#eeee00" stroke="black" stroke-width="1" stroke-linecap="round" />
<text x="-66.67851282554732" y="-25" font-size="6" font-family="Georgia" text-anchor="auto" dominant-baseline="auto"><tspan x="-66.67851282554732" dy="0em">text midddddddddle</tspan><tspan x="-66.67851282554732" dy="1em">2023-06-08 14:36</tspan></text>
<path d="M-52.647770781033046,4 L-52.647770781033046,32" fill="#eeee00" stroke="black" stroke-width="1" stroke-linecap="round" />
<text x="-50.647770781033046" y="25" font-size="6" font-family="Georgia" text-anchor="auto" dominant-baseline="auto"><tspan x="-50.647770781033046" dy="0em">text midddddddddle 22222222</tspan><tspan x="-50.647770781033046" dy="1em">2023-06-09</tspan></text>
<path d="M29.211337531380195,-4 L29.211337531380195,-32" fill="#eeee00" stroke="black" stroke-width="1" stroke-linecap="round" />
<text x="31.211337531380195" y="-25" font-size="6" font-family="Georgia" text-anchor="auto" dominant-baseline="auto"><tspan x="31.211337531380195" dy="0em">text end</tspan><tspan x="31.211337531380195" dy="1em">2023-06-11</tspan></text>
</svg>